ISO-10303-21;
HEADER;
FILE_DESCRIPTION(('FreeCAD Model'),'2;1');
FILE_NAME('Open CASCADE Shape Model','2026-09-03T20:17:18',('Author'),(
    ''),'Open CASCADE STEP processor 7.8','FreeCAD','Unknown');
FILE_SCHEMA(('AUTOMOTIVE_DESIGN { 1 0 10303 214 1 1 1 1 }'));
ENDSEC;
DATA;
#1 = APPLICATION_PROTOCOL_DEFINITION('international standard',
  'automotive_design',2000,#2);
#2 = APPLICATION_CONTEXT(
  'core data for automotive mechanical design processes');
#3 = SHAPE_DEFINITION_REPRESENTATION(#4,#10);
#4 = PRODUCT_DEFINITION_SHAPE('','',#5);
#5 = PRODUCT_DEFINITION('design','',#6,#9);
#6 = PRODUCT_DEFINITION_FORMATION('','',#7);
#7 = PRODUCT('Body','Body','',(#8));
#8 = PRODUCT_CONTEXT('',#2,'mechanical');
#9 = PRODUCT_DEFINITION_CONTEXT('part definition',#2,'design');
#10 = ADVANCED_BREP_SHAPE_REPRESENTATION('',(#11,#15),#1043);
#11 = AXIS2_PLACEMENT_3D('',#12,#13,#14);
#12 = CARTESIAN_POINT('',(0.,0.,0.));
#13 = DIRECTION('',(0.,0.,1.));
#14 = DIRECTION('',(1.,0.,-0.));
#15 = MANIFOLD_SOLID_BREP('',#16);
#16 = CLOSED_SHELL('',(#17,#207,#238,#263,#288,#382,#406,#431,#456,#473,
    #498,#523,#554,#579,#604,#698,#722,#747,#772,#789,#814,#839,#855,
    #877,#894,#911,#928,#945,#962,#979,#991,#1000,#1009,#1025,#1034));
#17 = ADVANCED_FACE('',(#18,#88,#99,#110,#180,#191),#202,.F.);
#18 = FACE_BOUND('',#19,.F.);
#19 = EDGE_LOOP('',(#20,#30,#39,#47,#56,#64,#73,#81));
#20 = ORIENTED_EDGE('',*,*,#21,.F.);
#21 = EDGE_CURVE('',#22,#24,#26,.T.);
#22 = VERTEX_POINT('',#23);
#23 = CARTESIAN_POINT('',(578.854134,-48.598553,0.));
#24 = VERTEX_POINT('',#25);
#25 = CARTESIAN_POINT('',(578.854134,-158.878553,0.));
#26 = LINE('',#27,#28);
#27 = CARTESIAN_POINT('',(578.854134,-46.598553,0.));
#28 = VECTOR('',#29,1.);
#29 = DIRECTION('',(0.,-1.,0.));
#30 = ORIENTED_EDGE('',*,*,#31,.T.);
#31 = EDGE_CURVE('',#22,#32,#34,.T.);
#32 = VERTEX_POINT('',#33);
#33 = CARTESIAN_POINT('',(576.854134,-46.598553,0.));
#34 = CIRCLE('',#35,2.);
#35 = AXIS2_PLACEMENT_3D('',#36,#37,#38);
#36 = CARTESIAN_POINT('',(576.854134,-48.598553,0.));
#37 = DIRECTION('',(-0.,0.,1.));
#38 = DIRECTION('',(0.,-1.,0.));
#39 = ORIENTED_EDGE('',*,*,#40,.T.);
#40 = EDGE_CURVE('',#32,#41,#43,.T.);
#41 = VERTEX_POINT('',#42);
#42 = CARTESIAN_POINT('',(61.412836,-46.598553,0.));
#43 = LINE('',#44,#45);
#44 = CARTESIAN_POINT('',(59.846745,-46.598553,0.));
#45 = VECTOR('',#46,1.);
#46 = DIRECTION('',(-1.,0.,0.));
#47 = ORIENTED_EDGE('',*,*,#48,.T.);
#48 = EDGE_CURVE('',#41,#49,#51,.T.);
#49 = VERTEX_POINT('',#50);
#50 = CARTESIAN_POINT('',(59.412836,-48.598553,0.));
#51 = CIRCLE('',#52,2.);
#52 = AXIS2_PLACEMENT_3D('',#53,#54,#55);
#53 = CARTESIAN_POINT('',(61.412836,-48.598553,0.));
#54 = DIRECTION('',(-0.,0.,1.));
#55 = DIRECTION('',(0.,-1.,0.));
#56 = ORIENTED_EDGE('',*,*,#57,.F.);
#57 = EDGE_CURVE('',#58,#49,#60,.T.);
#58 = VERTEX_POINT('',#59);
#59 = CARTESIAN_POINT('',(59.412836,-158.878553,0.));
#60 = LINE('',#61,#62);
#61 = CARTESIAN_POINT('',(59.412836,-160.878553,0.));
#62 = VECTOR('',#63,1.);
#63 = DIRECTION('',(0.,1.,0.));
#64 = ORIENTED_EDGE('',*,*,#65,.T.);
#65 = EDGE_CURVE('',#58,#66,#68,.T.);
#66 = VERTEX_POINT('',#67);
#67 = CARTESIAN_POINT('',(61.412836,-160.878553,0.));
#68 = CIRCLE('',#69,2.);
#69 = AXIS2_PLACEMENT_3D('',#70,#71,#72);
#70 = CARTESIAN_POINT('',(61.412836,-158.878553,0.));
#71 = DIRECTION('',(-0.,0.,1.));
#72 = DIRECTION('',(0.,-1.,0.));
#73 = ORIENTED_EDGE('',*,*,#74,.F.);
#74 = EDGE_CURVE('',#75,#66,#77,.T.);
#75 = VERTEX_POINT('',#76);
#76 = CARTESIAN_POINT('',(576.854134,-160.878553,0.));
#77 = LINE('',#78,#79);
#78 = CARTESIAN_POINT('',(578.854134,-160.878553,0.));
#79 = VECTOR('',#80,1.);
#80 = DIRECTION('',(-1.,0.,0.));
#81 = ORIENTED_EDGE('',*,*,#82,.T.);
#82 = EDGE_CURVE('',#75,#24,#83,.T.);
#83 = CIRCLE('',#84,2.);
#84 = AXIS2_PLACEMENT_3D('',#85,#86,#87);
#85 = CARTESIAN_POINT('',(576.854134,-158.878553,0.));
#86 = DIRECTION('',(-0.,0.,1.));
#87 = DIRECTION('',(0.,-1.,0.));
#88 = FACE_BOUND('',#89,.F.);
#89 = EDGE_LOOP('',(#90));
#90 = ORIENTED_EDGE('',*,*,#91,.T.);
#91 = EDGE_CURVE('',#92,#92,#94,.T.);
#92 = VERTEX_POINT('',#93);
#93 = CARTESIAN_POINT('',(62.4914,-159.005,0.));
#94 = CIRCLE('',#95,1.25);
#95 = AXIS2_PLACEMENT_3D('',#96,#97,#98);
#96 = CARTESIAN_POINT('',(61.2414,-159.005,0.));
#97 = DIRECTION('',(0.,0.,-1.));
#98 = DIRECTION('',(1.,0.,0.));
#99 = FACE_BOUND('',#100,.F.);
#100 = EDGE_LOOP('',(#101));
#101 = ORIENTED_EDGE('',*,*,#102,.T.);
#102 = EDGE_CURVE('',#103,#103,#105,.T.);
#103 = VERTEX_POINT('',#104);
#104 = CARTESIAN_POINT('',(578.184,-159.05,0.));
#105 = CIRCLE('',#106,1.25);
#106 = AXIS2_PLACEMENT_3D('',#107,#108,#109);
#107 = CARTESIAN_POINT('',(576.934,-159.05,0.));
#108 = DIRECTION('',(0.,0.,-1.));
#109 = DIRECTION('',(1.,0.,0.));
#110 = FACE_BOUND('',#111,.F.);
#111 = EDGE_LOOP('',(#112,#122,#131,#139,#148,#156,#165,#173));
#112 = ORIENTED_EDGE('',*,*,#113,.T.);
#113 = EDGE_CURVE('',#114,#116,#118,.T.);
#114 = VERTEX_POINT('',#115);
#115 = CARTESIAN_POINT('',(576.73281469629,-51.71987438341,0.));
#116 = VERTEX_POINT('',#117);
#117 = CARTESIAN_POINT('',(576.73281469629,-155.757233003,0.));
#118 = LINE('',#119,#120);
#119 = CARTESIAN_POINT('',(576.73281469629,-48.71987438341,0.));
#120 = VECTOR('',#121,1.);
#121 = DIRECTION('',(0.,-1.,0.));
#122 = ORIENTED_EDGE('',*,*,#123,.F.);
#123 = EDGE_CURVE('',#124,#116,#126,.T.);
#124 = VERTEX_POINT('',#125);
#125 = CARTESIAN_POINT('',(573.73281469629,-158.757233003,0.));
#126 = CIRCLE('',#127,3.);
#127 = AXIS2_PLACEMENT_3D('',#128,#129,#130);
#128 = CARTESIAN_POINT('',(573.73281469629,-155.757233003,0.));
#129 = DIRECTION('',(-0.,0.,1.));
#130 = DIRECTION('',(0.,-1.,0.));
#131 = ORIENTED_EDGE('',*,*,#132,.T.);
#132 = EDGE_CURVE('',#124,#133,#135,.T.);
#133 = VERTEX_POINT('',#134);
#134 = CARTESIAN_POINT('',(64.534156690178,-158.757233003,0.));
#135 = LINE('',#136,#137);
#136 = CARTESIAN_POINT('',(576.73281469629,-158.757233003,0.));
#137 = VECTOR('',#138,1.);
#138 = DIRECTION('',(-1.,0.,0.));
#139 = ORIENTED_EDGE('',*,*,#140,.F.);
#140 = EDGE_CURVE('',#141,#133,#143,.T.);
#141 = VERTEX_POINT('',#142);
#142 = CARTESIAN_POINT('',(61.534156690178,-155.757233003,0.));
#143 = CIRCLE('',#144,3.);
#144 = AXIS2_PLACEMENT_3D('',#145,#146,#147);
#145 = CARTESIAN_POINT('',(64.534156690178,-155.757233003,0.));
#146 = DIRECTION('',(-0.,0.,1.));
#147 = DIRECTION('',(0.,-1.,0.));
#148 = ORIENTED_EDGE('',*,*,#149,.T.);
#149 = EDGE_CURVE('',#141,#150,#152,.T.);
#150 = VERTEX_POINT('',#151);
#151 = CARTESIAN_POINT('',(61.534156690178,-51.71987438341,0.));
#152 = LINE('',#153,#154);
#153 = CARTESIAN_POINT('',(61.534156690178,-158.757233003,0.));
#154 = VECTOR('',#155,1.);
#155 = DIRECTION('',(0.,1.,0.));
#156 = ORIENTED_EDGE('',*,*,#157,.F.);
#157 = EDGE_CURVE('',#158,#150,#160,.T.);
#158 = VERTEX_POINT('',#159);
#159 = CARTESIAN_POINT('',(64.534156690178,-48.71987438341,0.));
#160 = CIRCLE('',#161,3.);
#161 = AXIS2_PLACEMENT_3D('',#162,#163,#164);
#162 = CARTESIAN_POINT('',(64.534156690178,-51.71987438341,0.));
#163 = DIRECTION('',(-0.,0.,1.));
#164 = DIRECTION('',(0.,-1.,0.));
#165 = ORIENTED_EDGE('',*,*,#166,.T.);
#166 = EDGE_CURVE('',#158,#167,#169,.T.);
#167 = VERTEX_POINT('',#168);
#168 = CARTESIAN_POINT('',(573.73281469629,-48.71987438341,0.));
#169 = LINE('',#170,#171);
#170 = CARTESIAN_POINT('',(61.534156690178,-48.71987438341,0.));
#171 = VECTOR('',#172,1.);
#172 = DIRECTION('',(1.,0.,0.));
#173 = ORIENTED_EDGE('',*,*,#174,.F.);
#174 = EDGE_CURVE('',#114,#167,#175,.T.);
#175 = CIRCLE('',#176,3.);
#176 = AXIS2_PLACEMENT_3D('',#177,#178,#179);
#177 = CARTESIAN_POINT('',(573.73281469629,-51.71987438341,0.));
#178 = DIRECTION('',(-0.,0.,1.));
#179 = DIRECTION('',(0.,-1.,0.));
#180 = FACE_BOUND('',#181,.F.);
#181 = EDGE_LOOP('',(#182));
#182 = ORIENTED_EDGE('',*,*,#183,.T.);
#183 = EDGE_CURVE('',#184,#184,#186,.T.);
#184 = VERTEX_POINT('',#185);
#185 = CARTESIAN_POINT('',(62.4574,-48.4596,0.));
#186 = CIRCLE('',#187,1.25);
#187 = AXIS2_PLACEMENT_3D('',#188,#189,#190);
#188 = CARTESIAN_POINT('',(61.2074,-48.4596,0.));
#189 = DIRECTION('',(0.,0.,-1.));
#190 = DIRECTION('',(1.,0.,0.));
#191 = FACE_BOUND('',#192,.F.);
#192 = EDGE_LOOP('',(#193));
#193 = ORIENTED_EDGE('',*,*,#194,.T.);
#194 = EDGE_CURVE('',#195,#195,#197,.T.);
#195 = VERTEX_POINT('',#196);
#196 = CARTESIAN_POINT('',(578.23,-48.3949,0.));
#197 = CIRCLE('',#198,1.25);
#198 = AXIS2_PLACEMENT_3D('',#199,#200,#201);
#199 = CARTESIAN_POINT('',(576.98,-48.3949,0.));
#200 = DIRECTION('',(0.,0.,-1.));
#201 = DIRECTION('',(1.,0.,0.));
#202 = PLANE('',#203);
#203 = AXIS2_PLACEMENT_3D('',#204,#205,#206);
#204 = CARTESIAN_POINT('',(319.133485,-103.738553,0.));
#205 = DIRECTION('',(0.,0.,1.));
#206 = DIRECTION('',(1.,0.,0.));
#207 = ADVANCED_FACE('',(#208),#233,.T.);
#208 = FACE_BOUND('',#209,.T.);
#209 = EDGE_LOOP('',(#210,#211,#219,#227));
#210 = ORIENTED_EDGE('',*,*,#21,.F.);
#211 = ORIENTED_EDGE('',*,*,#212,.T.);
#212 = EDGE_CURVE('',#22,#213,#215,.T.);
#213 = VERTEX_POINT('',#214);
#214 = CARTESIAN_POINT('',(578.854134,-48.598553,15.));
#215 = LINE('',#216,#217);
#216 = CARTESIAN_POINT('',(578.854134,-48.598553,0.));
#217 = VECTOR('',#218,1.);
#218 = DIRECTION('',(0.,0.,1.));
#219 = ORIENTED_EDGE('',*,*,#220,.T.);
#220 = EDGE_CURVE('',#213,#221,#223,.T.);
#221 = VERTEX_POINT('',#222);
#222 = CARTESIAN_POINT('',(578.854134,-158.878553,15.));
#223 = LINE('',#224,#225);
#224 = CARTESIAN_POINT('',(578.854134,-46.598553,15.));
#225 = VECTOR('',#226,1.);
#226 = DIRECTION('',(0.,-1.,0.));
#227 = ORIENTED_EDGE('',*,*,#228,.F.);
#228 = EDGE_CURVE('',#24,#221,#229,.T.);
#229 = LINE('',#230,#231);
#230 = CARTESIAN_POINT('',(578.854134,-158.878553,0.));
#231 = VECTOR('',#232,1.);
#232 = DIRECTION('',(0.,0.,1.));
#233 = PLANE('',#234);
#234 = AXIS2_PLACEMENT_3D('',#235,#236,#237);
#235 = CARTESIAN_POINT('',(578.854134,-46.598553,0.));
#236 = DIRECTION('',(1.,0.,0.));
#237 = DIRECTION('',(0.,-1.,0.));
#238 = ADVANCED_FACE('',(#239),#258,.T.);
#239 = FACE_BOUND('',#240,.T.);
#240 = EDGE_LOOP('',(#241,#242,#250,#257));
#241 = ORIENTED_EDGE('',*,*,#31,.T.);
#242 = ORIENTED_EDGE('',*,*,#243,.T.);
#243 = EDGE_CURVE('',#32,#244,#246,.T.);
#244 = VERTEX_POINT('',#245);
#245 = CARTESIAN_POINT('',(576.854134,-46.598553,15.));
#246 = LINE('',#247,#248);
#247 = CARTESIAN_POINT('',(576.854134,-46.598553,0.));
#248 = VECTOR('',#249,1.);
#249 = DIRECTION('',(0.,0.,1.));
#250 = ORIENTED_EDGE('',*,*,#251,.F.);
#251 = EDGE_CURVE('',#213,#244,#252,.T.);
#252 = CIRCLE('',#253,2.);
#253 = AXIS2_PLACEMENT_3D('',#254,#255,#256);
#254 = CARTESIAN_POINT('',(576.854134,-48.598553,15.));
#255 = DIRECTION('',(-0.,0.,1.));
#256 = DIRECTION('',(0.,-1.,0.));
#257 = ORIENTED_EDGE('',*,*,#212,.F.);
#258 = CYLINDRICAL_SURFACE('',#259,2.);
#259 = AXIS2_PLACEMENT_3D('',#260,#261,#262);
#260 = CARTESIAN_POINT('',(576.854134,-48.598553,0.));
#261 = DIRECTION('',(0.,0.,1.));
#262 = DIRECTION('',(1.,0.,0.));
#263 = ADVANCED_FACE('',(#264),#283,.T.);
#264 = FACE_BOUND('',#265,.T.);
#265 = EDGE_LOOP('',(#266,#267,#268,#277));
#266 = ORIENTED_EDGE('',*,*,#82,.T.);
#267 = ORIENTED_EDGE('',*,*,#228,.T.);
#268 = ORIENTED_EDGE('',*,*,#269,.F.);
#269 = EDGE_CURVE('',#270,#221,#272,.T.);
#270 = VERTEX_POINT('',#271);
#271 = CARTESIAN_POINT('',(576.854134,-160.878553,15.));
#272 = CIRCLE('',#273,2.);
#273 = AXIS2_PLACEMENT_3D('',#274,#275,#276);
#274 = CARTESIAN_POINT('',(576.854134,-158.878553,15.));
#275 = DIRECTION('',(-0.,0.,1.));
#276 = DIRECTION('',(0.,-1.,0.));
#277 = ORIENTED_EDGE('',*,*,#278,.F.);
#278 = EDGE_CURVE('',#75,#270,#279,.T.);
#279 = LINE('',#280,#281);
#280 = CARTESIAN_POINT('',(576.854134,-160.878553,0.));
#281 = VECTOR('',#282,1.);
#282 = DIRECTION('',(0.,0.,1.));
#283 = CYLINDRICAL_SURFACE('',#284,2.);
#284 = AXIS2_PLACEMENT_3D('',#285,#286,#287);
#285 = CARTESIAN_POINT('',(576.854134,-158.878553,0.));
#286 = DIRECTION('',(0.,0.,1.));
#287 = DIRECTION('',(0.,-1.,0.));
#288 = ADVANCED_FACE('',(#289,#307),#377,.T.);
#289 = FACE_BOUND('',#290,.T.);
#290 = EDGE_LOOP('',(#291,#292,#300,#306));
#291 = ORIENTED_EDGE('',*,*,#40,.T.);
#292 = ORIENTED_EDGE('',*,*,#293,.T.);
#293 = EDGE_CURVE('',#41,#294,#296,.T.);
#294 = VERTEX_POINT('',#295);
#295 = CARTESIAN_POINT('',(61.412836,-46.598553,15.));
#296 = LINE('',#297,#298);
#297 = CARTESIAN_POINT('',(61.412836,-46.598553,0.));
#298 = VECTOR('',#299,1.);
#299 = DIRECTION('',(0.,0.,1.));
#300 = ORIENTED_EDGE('',*,*,#301,.T.);
#301 = EDGE_CURVE('',#294,#244,#302,.T.);
#302 = LINE('',#303,#304);
#303 = CARTESIAN_POINT('',(578.517824,-46.598553,15.));
#304 = VECTOR('',#305,1.);
#305 = DIRECTION('',(1.,0.,0.));
#306 = ORIENTED_EDGE('',*,*,#243,.F.);
#307 = FACE_BOUND('',#308,.T.);
#308 = EDGE_LOOP('',(#309,#319,#328,#336,#345,#353,#362,#370));
#309 = ORIENTED_EDGE('',*,*,#310,.F.);
#310 = EDGE_CURVE('',#311,#313,#315,.T.);
#311 = VERTEX_POINT('',#312);
#312 = CARTESIAN_POINT('',(101.978394,-46.598553,5.620946));
#313 = VERTEX_POINT('',#314);
#314 = CARTESIAN_POINT('',(101.978394,-46.598553,4.529941));
#315 = LINE('',#316,#317);
#316 = CARTESIAN_POINT('',(101.978394,-46.598553,6.0149705));
#317 = VECTOR('',#318,1.);
#318 = DIRECTION('',(0.,0.,-1.));
#319 = ORIENTED_EDGE('',*,*,#320,.T.);
#320 = EDGE_CURVE('',#311,#321,#323,.T.);
#321 = VERTEX_POINT('',#322);
#322 = CARTESIAN_POINT('',(100.817866,-46.598553,6.781474));
#323 = CIRCLE('',#324,1.160528);
#324 = AXIS2_PLACEMENT_3D('',#325,#326,#327);
#325 = CARTESIAN_POINT('',(100.817866,-46.598553,5.620946));
#326 = DIRECTION('',(0.,-1.,2.2E-16));
#327 = DIRECTION('',(1.,0.,0.));
#328 = ORIENTED_EDGE('',*,*,#329,.F.);
#329 = EDGE_CURVE('',#330,#321,#332,.T.);
#330 = VERTEX_POINT('',#331);
#331 = CARTESIAN_POINT('',(91.437399,-46.598553,6.781474));
#332 = LINE('',#333,#334);
#333 = CARTESIAN_POINT('',(209.9756755,-46.598553,6.781474));
#334 = VECTOR('',#335,1.);
#335 = DIRECTION('',(1.,0.,0.));
#336 = ORIENTED_EDGE('',*,*,#337,.T.);
#337 = EDGE_CURVE('',#330,#338,#340,.T.);
#338 = VERTEX_POINT('',#339);
#339 = CARTESIAN_POINT('',(90.276871,-46.598553,5.620946));
#340 = CIRCLE('',#341,1.160528);
#341 = AXIS2_PLACEMENT_3D('',#342,#343,#344);
#342 = CARTESIAN_POINT('',(91.437399,-46.598553,5.620946));
#343 = DIRECTION('',(0.,-1.,2.2E-16));
#344 = DIRECTION('',(1.,0.,0.));
#345 = ORIENTED_EDGE('',*,*,#346,.F.);
#346 = EDGE_CURVE('',#347,#338,#349,.T.);
#347 = VERTEX_POINT('',#348);
#348 = CARTESIAN_POINT('',(90.276871,-46.598553,4.529941));
#349 = LINE('',#350,#351);
#350 = CARTESIAN_POINT('',(90.276871,-46.598553,6.560473));
#351 = VECTOR('',#352,1.);
#352 = DIRECTION('',(0.,0.,1.));
#353 = ORIENTED_EDGE('',*,*,#354,.T.);
#354 = EDGE_CURVE('',#347,#355,#357,.T.);
#355 = VERTEX_POINT('',#356);
#356 = CARTESIAN_POINT('',(91.437399,-46.598553,3.369413));
#357 = CIRCLE('',#358,1.160528);
#358 = AXIS2_PLACEMENT_3D('',#359,#360,#361);
#359 = CARTESIAN_POINT('',(91.437399,-46.598553,4.529941));
#360 = DIRECTION('',(0.,-1.,2.2E-16));
#361 = DIRECTION('',(1.,0.,0.));
#362 = ORIENTED_EDGE('',*,*,#363,.F.);
#363 = EDGE_CURVE('',#364,#355,#366,.T.);
#364 = VERTEX_POINT('',#365);
#365 = CARTESIAN_POINT('',(100.817866,-46.598553,3.369413));
#366 = LINE('',#367,#368);
#367 = CARTESIAN_POINT('',(205.285442,-46.598553,3.369413));
#368 = VECTOR('',#369,1.);
#369 = DIRECTION('',(-1.,0.,0.));
#370 = ORIENTED_EDGE('',*,*,#371,.T.);
#371 = EDGE_CURVE('',#364,#313,#372,.T.);
#372 = CIRCLE('',#373,1.160528);
#373 = AXIS2_PLACEMENT_3D('',#374,#375,#376);
#374 = CARTESIAN_POINT('',(100.817866,-46.598553,4.529941));
#375 = DIRECTION('',(0.,-1.,2.2E-16));
#376 = DIRECTION('',(1.,0.,0.));
#377 = PLANE('',#378);
#378 = AXIS2_PLACEMENT_3D('',#379,#380,#381);
#379 = CARTESIAN_POINT('',(319.133485,-46.598553,7.5));
#380 = DIRECTION('',(0.,1.,0.));
#381 = DIRECTION('',(0.,0.,1.));
#382 = ADVANCED_FACE('',(#383),#401,.T.);
#383 = FACE_BOUND('',#384,.T.);
#384 = EDGE_LOOP('',(#385,#386,#387,#395));
#385 = ORIENTED_EDGE('',*,*,#74,.F.);
#386 = ORIENTED_EDGE('',*,*,#278,.T.);
#387 = ORIENTED_EDGE('',*,*,#388,.T.);
#388 = EDGE_CURVE('',#270,#389,#391,.T.);
#389 = VERTEX_POINT('',#390);
#390 = CARTESIAN_POINT('',(61.412836,-160.878553,15.));
#391 = LINE('',#392,#393);
#392 = CARTESIAN_POINT('',(578.854134,-160.878553,15.));
#393 = VECTOR('',#394,1.);
#394 = DIRECTION('',(-1.,0.,0.));
#395 = ORIENTED_EDGE('',*,*,#396,.F.);
#396 = EDGE_CURVE('',#66,#389,#397,.T.);
#397 = LINE('',#398,#399);
#398 = CARTESIAN_POINT('',(61.412836,-160.878553,0.));
#399 = VECTOR('',#400,1.);
#400 = DIRECTION('',(0.,0.,1.));
#401 = PLANE('',#402);
#402 = AXIS2_PLACEMENT_3D('',#403,#404,#405);
#403 = CARTESIAN_POINT('',(578.854134,-160.878553,0.));
#404 = DIRECTION('',(0.,-1.,0.));
#405 = DIRECTION('',(-1.,0.,0.));
#406 = ADVANCED_FACE('',(#407),#426,.T.);
#407 = FACE_BOUND('',#408,.T.);
#408 = EDGE_LOOP('',(#409,#410,#418,#425));
#409 = ORIENTED_EDGE('',*,*,#48,.T.);
#410 = ORIENTED_EDGE('',*,*,#411,.T.);
#411 = EDGE_CURVE('',#49,#412,#414,.T.);
#412 = VERTEX_POINT('',#413);
#413 = CARTESIAN_POINT('',(59.412836,-48.598553,15.));
#414 = LINE('',#415,#416);
#415 = CARTESIAN_POINT('',(59.412836,-48.598553,0.));
#416 = VECTOR('',#417,1.);
#417 = DIRECTION('',(0.,0.,1.));
#418 = ORIENTED_EDGE('',*,*,#419,.F.);
#419 = EDGE_CURVE('',#294,#412,#420,.T.);
#420 = CIRCLE('',#421,2.);
#421 = AXIS2_PLACEMENT_3D('',#422,#423,#424);
#422 = CARTESIAN_POINT('',(61.412836,-48.598553,15.));
#423 = DIRECTION('',(-0.,0.,1.));
#424 = DIRECTION('',(0.,-1.,0.));
#425 = ORIENTED_EDGE('',*,*,#293,.F.);
#426 = CYLINDRICAL_SURFACE('',#427,2.);
#427 = AXIS2_PLACEMENT_3D('',#428,#429,#430);
#428 = CARTESIAN_POINT('',(61.412836,-48.598553,0.));
#429 = DIRECTION('',(0.,0.,1.));
#430 = DIRECTION('',(0.,1.,0.));
#431 = ADVANCED_FACE('',(#432),#451,.T.);
#432 = FACE_BOUND('',#433,.T.);
#433 = EDGE_LOOP('',(#434,#435,#436,#445));
#434 = ORIENTED_EDGE('',*,*,#65,.T.);
#435 = ORIENTED_EDGE('',*,*,#396,.T.);
#436 = ORIENTED_EDGE('',*,*,#437,.F.);
#437 = EDGE_CURVE('',#438,#389,#440,.T.);
#438 = VERTEX_POINT('',#439);
#439 = CARTESIAN_POINT('',(59.412836,-158.878553,15.));
#440 = CIRCLE('',#441,2.);
#441 = AXIS2_PLACEMENT_3D('',#442,#443,#444);
#442 = CARTESIAN_POINT('',(61.412836,-158.878553,15.));
#443 = DIRECTION('',(-0.,0.,1.));
#444 = DIRECTION('',(0.,-1.,0.));
#445 = ORIENTED_EDGE('',*,*,#446,.F.);
#446 = EDGE_CURVE('',#58,#438,#447,.T.);
#447 = LINE('',#448,#449);
#448 = CARTESIAN_POINT('',(59.412836,-158.878553,0.));
#449 = VECTOR('',#450,1.);
#450 = DIRECTION('',(0.,0.,1.));
#451 = CYLINDRICAL_SURFACE('',#452,2.);
#452 = AXIS2_PLACEMENT_3D('',#453,#454,#455);
#453 = CARTESIAN_POINT('',(61.412836,-158.878553,0.));
#454 = DIRECTION('',(0.,0.,1.));
#455 = DIRECTION('',(-1.,0.,0.));
#456 = ADVANCED_FACE('',(#457),#468,.T.);
#457 = FACE_BOUND('',#458,.T.);
#458 = EDGE_LOOP('',(#459,#460,#461,#467));
#459 = ORIENTED_EDGE('',*,*,#57,.F.);
#460 = ORIENTED_EDGE('',*,*,#446,.T.);
#461 = ORIENTED_EDGE('',*,*,#462,.T.);
#462 = EDGE_CURVE('',#438,#412,#463,.T.);
#463 = LINE('',#464,#465);
#464 = CARTESIAN_POINT('',(59.412836,-160.878553,15.));
#465 = VECTOR('',#466,1.);
#466 = DIRECTION('',(0.,1.,0.));
#467 = ORIENTED_EDGE('',*,*,#411,.F.);
#468 = PLANE('',#469);
#469 = AXIS2_PLACEMENT_3D('',#470,#471,#472);
#470 = CARTESIAN_POINT('',(59.412836,-160.878553,0.));
#471 = DIRECTION('',(-1.,0.,0.));
#472 = DIRECTION('',(0.,1.,0.));
#473 = ADVANCED_FACE('',(#474),#493,.F.);
#474 = FACE_BOUND('',#475,.F.);
#475 = EDGE_LOOP('',(#476,#484,#491,#492));
#476 = ORIENTED_EDGE('',*,*,#477,.T.);
#477 = EDGE_CURVE('',#92,#478,#480,.T.);
#478 = VERTEX_POINT('',#479);
#479 = CARTESIAN_POINT('',(62.4914,-159.005,4.));
#480 = LINE('',#481,#482);
#481 = CARTESIAN_POINT('',(62.4914,-159.005,0.));
#482 = VECTOR('',#483,1.);
#483 = DIRECTION('',(0.,0.,1.));
#484 = ORIENTED_EDGE('',*,*,#485,.T.);
#485 = EDGE_CURVE('',#478,#478,#486,.T.);
#486 = CIRCLE('',#487,1.25);
#487 = AXIS2_PLACEMENT_3D('',#488,#489,#490);
#488 = CARTESIAN_POINT('',(61.2414,-159.005,4.));
#489 = DIRECTION('',(0.,0.,-1.));
#490 = DIRECTION('',(1.,0.,0.));
#491 = ORIENTED_EDGE('',*,*,#477,.F.);
#492 = ORIENTED_EDGE('',*,*,#91,.F.);
#493 = CYLINDRICAL_SURFACE('',#494,1.25);
#494 = AXIS2_PLACEMENT_3D('',#495,#496,#497);
#495 = CARTESIAN_POINT('',(61.2414,-159.005,0.));
#496 = DIRECTION('',(0.,0.,-1.));
#497 = DIRECTION('',(1.,0.,0.));
#498 = ADVANCED_FACE('',(#499),#518,.F.);
#499 = FACE_BOUND('',#500,.F.);
#500 = EDGE_LOOP('',(#501,#509,#516,#517));
#501 = ORIENTED_EDGE('',*,*,#502,.T.);
#502 = EDGE_CURVE('',#103,#503,#505,.T.);
#503 = VERTEX_POINT('',#504);
#504 = CARTESIAN_POINT('',(578.184,-159.05,4.));
#505 = LINE('',#506,#507);
#506 = CARTESIAN_POINT('',(578.184,-159.05,0.));
#507 = VECTOR('',#508,1.);
#508 = DIRECTION('',(0.,0.,1.));
#509 = ORIENTED_EDGE('',*,*,#510,.T.);
#510 = EDGE_CURVE('',#503,#503,#511,.T.);
#511 = CIRCLE('',#512,1.25);
#512 = AXIS2_PLACEMENT_3D('',#513,#514,#515);
#513 = CARTESIAN_POINT('',(576.934,-159.05,4.));
#514 = DIRECTION('',(0.,0.,-1.));
#515 = DIRECTION('',(1.,0.,0.));
#516 = ORIENTED_EDGE('',*,*,#502,.F.);
#517 = ORIENTED_EDGE('',*,*,#102,.F.);
#518 = CYLINDRICAL_SURFACE('',#519,1.25);
#519 = AXIS2_PLACEMENT_3D('',#520,#521,#522);
#520 = CARTESIAN_POINT('',(576.934,-159.05,0.));
#521 = DIRECTION('',(0.,0.,-1.));
#522 = DIRECTION('',(1.,0.,0.));
#523 = ADVANCED_FACE('',(#524),#549,.F.);
#524 = FACE_BOUND('',#525,.F.);
#525 = EDGE_LOOP('',(#526,#527,#535,#543));
#526 = ORIENTED_EDGE('',*,*,#113,.F.);
#527 = ORIENTED_EDGE('',*,*,#528,.T.);
#528 = EDGE_CURVE('',#114,#529,#531,.T.);
#529 = VERTEX_POINT('',#530);
#530 = CARTESIAN_POINT('',(576.73281469629,-51.71987438341,12.));
#531 = LINE('',#532,#533);
#532 = CARTESIAN_POINT('',(576.73281469629,-51.71987438341,0.));
#533 = VECTOR('',#534,1.);
#534 = DIRECTION('',(0.,0.,1.));
#535 = ORIENTED_EDGE('',*,*,#536,.T.);
#536 = EDGE_CURVE('',#529,#537,#539,.T.);
#537 = VERTEX_POINT('',#538);
#538 = CARTESIAN_POINT('',(576.73281469629,-155.757233003,12.));
#539 = LINE('',#540,#541);
#540 = CARTESIAN_POINT('',(576.73281469629,-48.71987438341,12.));
#541 = VECTOR('',#542,1.);
#542 = DIRECTION('',(0.,-1.,0.));
#543 = ORIENTED_EDGE('',*,*,#544,.F.);
#544 = EDGE_CURVE('',#116,#537,#545,.T.);
#545 = LINE('',#546,#547);
#546 = CARTESIAN_POINT('',(576.73281469629,-155.757233003,0.));
#547 = VECTOR('',#548,1.);
#548 = DIRECTION('',(0.,0.,1.));
#549 = PLANE('',#550);
#550 = AXIS2_PLACEMENT_3D('',#551,#552,#553);
#551 = CARTESIAN_POINT('',(576.73281469629,-48.71987438341,0.));
#552 = DIRECTION('',(1.,0.,0.));
#553 = DIRECTION('',(0.,-1.,0.));
#554 = ADVANCED_FACE('',(#555),#574,.F.);
#555 = FACE_BOUND('',#556,.F.);
#556 = EDGE_LOOP('',(#557,#558,#566,#573));
#557 = ORIENTED_EDGE('',*,*,#174,.T.);
#558 = ORIENTED_EDGE('',*,*,#559,.T.);
#559 = EDGE_CURVE('',#167,#560,#562,.T.);
#560 = VERTEX_POINT('',#561);
#561 = CARTESIAN_POINT('',(573.73281469629,-48.71987438341,12.));
#562 = LINE('',#563,#564);
#563 = CARTESIAN_POINT('',(573.73281469629,-48.71987438341,0.));
#564 = VECTOR('',#565,1.);
#565 = DIRECTION('',(0.,0.,1.));
#566 = ORIENTED_EDGE('',*,*,#567,.F.);
#567 = EDGE_CURVE('',#529,#560,#568,.T.);
#568 = CIRCLE('',#569,3.);
#569 = AXIS2_PLACEMENT_3D('',#570,#571,#572);
#570 = CARTESIAN_POINT('',(573.73281469629,-51.71987438341,12.));
#571 = DIRECTION('',(-0.,0.,1.));
#572 = DIRECTION('',(0.,-1.,0.));
#573 = ORIENTED_EDGE('',*,*,#528,.F.);
#574 = CYLINDRICAL_SURFACE('',#575,3.);
#575 = AXIS2_PLACEMENT_3D('',#576,#577,#578);
#576 = CARTESIAN_POINT('',(573.73281469629,-51.71987438341,0.));
#577 = DIRECTION('',(0.,0.,1.));
#578 = DIRECTION('',(1.,0.,0.));
#579 = ADVANCED_FACE('',(#580),#599,.F.);
#580 = FACE_BOUND('',#581,.F.);
#581 = EDGE_LOOP('',(#582,#583,#584,#593));
#582 = ORIENTED_EDGE('',*,*,#123,.T.);
#583 = ORIENTED_EDGE('',*,*,#544,.T.);
#584 = ORIENTED_EDGE('',*,*,#585,.F.);
#585 = EDGE_CURVE('',#586,#537,#588,.T.);
#586 = VERTEX_POINT('',#587);
#587 = CARTESIAN_POINT('',(573.73281469629,-158.757233003,12.));
#588 = CIRCLE('',#589,3.);
#589 = AXIS2_PLACEMENT_3D('',#590,#591,#592);
#590 = CARTESIAN_POINT('',(573.73281469629,-155.757233003,12.));
#591 = DIRECTION('',(-0.,0.,1.));
#592 = DIRECTION('',(0.,-1.,0.));
#593 = ORIENTED_EDGE('',*,*,#594,.F.);
#594 = EDGE_CURVE('',#124,#586,#595,.T.);
#595 = LINE('',#596,#597);
#596 = CARTESIAN_POINT('',(573.73281469629,-158.757233003,0.));
#597 = VECTOR('',#598,1.);
#598 = DIRECTION('',(0.,0.,1.));
#599 = CYLINDRICAL_SURFACE('',#600,3.);
#600 = AXIS2_PLACEMENT_3D('',#601,#602,#603);
#601 = CARTESIAN_POINT('',(573.73281469629,-155.757233003,0.));
#602 = DIRECTION('',(0.,0.,1.));
#603 = DIRECTION('',(0.,-1.,0.));
#604 = ADVANCED_FACE('',(#605,#623),#693,.F.);
#605 = FACE_BOUND('',#606,.F.);
#606 = EDGE_LOOP('',(#607,#608,#616,#622));
#607 = ORIENTED_EDGE('',*,*,#166,.F.);
#608 = ORIENTED_EDGE('',*,*,#609,.T.);
#609 = EDGE_CURVE('',#158,#610,#612,.T.);
#610 = VERTEX_POINT('',#611);
#611 = CARTESIAN_POINT('',(64.534156690178,-48.71987438341,12.));
#612 = LINE('',#613,#614);
#613 = CARTESIAN_POINT('',(64.534156690178,-48.71987438341,0.));
#614 = VECTOR('',#615,1.);
#615 = DIRECTION('',(0.,0.,1.));
#616 = ORIENTED_EDGE('',*,*,#617,.T.);
#617 = EDGE_CURVE('',#610,#560,#618,.T.);
#618 = LINE('',#619,#620);
#619 = CARTESIAN_POINT('',(61.534156690178,-48.71987438341,12.));
#620 = VECTOR('',#621,1.);
#621 = DIRECTION('',(1.,0.,0.));
#622 = ORIENTED_EDGE('',*,*,#559,.F.);
#623 = FACE_BOUND('',#624,.F.);
#624 = EDGE_LOOP('',(#625,#636,#644,#653,#661,#670,#678,#687));
#625 = ORIENTED_EDGE('',*,*,#626,.T.);
#626 = EDGE_CURVE('',#627,#629,#631,.T.);
#627 = VERTEX_POINT('',#628);
#628 = CARTESIAN_POINT('',(100.817866,-48.71987438341,3.369413));
#629 = VERTEX_POINT('',#630);
#630 = CARTESIAN_POINT('',(101.978394,-48.71987438341,4.529941));
#631 = CIRCLE('',#632,1.160528);
#632 = AXIS2_PLACEMENT_3D('',#633,#634,#635);
#633 = CARTESIAN_POINT('',(100.817866,-48.71987438341,4.529941));
#634 = DIRECTION('',(0.,-1.,0.));
#635 = DIRECTION('',(1.,0.,0.));
#636 = ORIENTED_EDGE('',*,*,#637,.T.);
#637 = EDGE_CURVE('',#629,#638,#640,.T.);
#638 = VERTEX_POINT('',#639);
#639 = CARTESIAN_POINT('',(101.978394,-48.71987438341,5.620946));
#640 = LINE('',#641,#642);
#641 = CARTESIAN_POINT('',(101.978394,-48.71987438341,4.529941));
#642 = VECTOR('',#643,1.);
#643 = DIRECTION('',(0.,0.,1.));
#644 = ORIENTED_EDGE('',*,*,#645,.T.);
#645 = EDGE_CURVE('',#638,#646,#648,.T.);
#646 = VERTEX_POINT('',#647);
#647 = CARTESIAN_POINT('',(100.817866,-48.71987438341,6.781474));
#648 = CIRCLE('',#649,1.160528);
#649 = AXIS2_PLACEMENT_3D('',#650,#651,#652);
#650 = CARTESIAN_POINT('',(100.817866,-48.71987438341,5.620946));
#651 = DIRECTION('',(0.,-1.,0.));
#652 = DIRECTION('',(1.,0.,0.));
#653 = ORIENTED_EDGE('',*,*,#654,.T.);
#654 = EDGE_CURVE('',#646,#655,#657,.T.);
#655 = VERTEX_POINT('',#656);
#656 = CARTESIAN_POINT('',(91.437399,-48.71987438341,6.781474));
#657 = LINE('',#658,#659);
#658 = CARTESIAN_POINT('',(100.817866,-48.71987438341,6.781474));
#659 = VECTOR('',#660,1.);
#660 = DIRECTION('',(-1.,0.,0.));
#661 = ORIENTED_EDGE('',*,*,#662,.T.);
#662 = EDGE_CURVE('',#655,#663,#665,.T.);
#663 = VERTEX_POINT('',#664);
#664 = CARTESIAN_POINT('',(90.276871,-48.71987438341,5.620946));
#665 = CIRCLE('',#666,1.160528);
#666 = AXIS2_PLACEMENT_3D('',#667,#668,#669);
#667 = CARTESIAN_POINT('',(91.437399,-48.71987438341,5.620946));
#668 = DIRECTION('',(0.,-1.,0.));
#669 = DIRECTION('',(1.,0.,0.));
#670 = ORIENTED_EDGE('',*,*,#671,.T.);
#671 = EDGE_CURVE('',#663,#672,#674,.T.);
#672 = VERTEX_POINT('',#673);
#673 = CARTESIAN_POINT('',(90.276871,-48.71987438341,4.529941));
#674 = LINE('',#675,#676);
#675 = CARTESIAN_POINT('',(90.276871,-48.71987438341,5.620946));
#676 = VECTOR('',#677,1.);
#677 = DIRECTION('',(0.,0.,-1.));
#678 = ORIENTED_EDGE('',*,*,#679,.T.);
#679 = EDGE_CURVE('',#672,#680,#682,.T.);
#680 = VERTEX_POINT('',#681);
#681 = CARTESIAN_POINT('',(91.437399,-48.71987438341,3.369413));
#682 = CIRCLE('',#683,1.160528);
#683 = AXIS2_PLACEMENT_3D('',#684,#685,#686);
#684 = CARTESIAN_POINT('',(91.437399,-48.71987438341,4.529941));
#685 = DIRECTION('',(0.,-1.,0.));
#686 = DIRECTION('',(1.,0.,0.));
#687 = ORIENTED_EDGE('',*,*,#688,.T.);
#688 = EDGE_CURVE('',#680,#627,#689,.T.);
#689 = LINE('',#690,#691);
#690 = CARTESIAN_POINT('',(91.437399,-48.71987438341,3.369413));
#691 = VECTOR('',#692,1.);
#692 = DIRECTION('',(1.,0.,0.));
#693 = PLANE('',#694);
#694 = AXIS2_PLACEMENT_3D('',#695,#696,#697);
#695 = CARTESIAN_POINT('',(61.534156690178,-48.71987438341,0.));
#696 = DIRECTION('',(0.,1.,0.));
#697 = DIRECTION('',(1.,0.,0.));
#698 = ADVANCED_FACE('',(#699),#717,.F.);
#699 = FACE_BOUND('',#700,.F.);
#700 = EDGE_LOOP('',(#701,#702,#703,#711));
#701 = ORIENTED_EDGE('',*,*,#132,.F.);
#702 = ORIENTED_EDGE('',*,*,#594,.T.);
#703 = ORIENTED_EDGE('',*,*,#704,.T.);
#704 = EDGE_CURVE('',#586,#705,#707,.T.);
#705 = VERTEX_POINT('',#706);
#706 = CARTESIAN_POINT('',(64.534156690178,-158.757233003,12.));
#707 = LINE('',#708,#709);
#708 = CARTESIAN_POINT('',(576.73281469629,-158.757233003,12.));
#709 = VECTOR('',#710,1.);
#710 = DIRECTION('',(-1.,0.,0.));
#711 = ORIENTED_EDGE('',*,*,#712,.F.);
#712 = EDGE_CURVE('',#133,#705,#713,.T.);
#713 = LINE('',#714,#715);
#714 = CARTESIAN_POINT('',(64.534156690178,-158.757233003,0.));
#715 = VECTOR('',#716,1.);
#716 = DIRECTION('',(0.,0.,1.));
#717 = PLANE('',#718);
#718 = AXIS2_PLACEMENT_3D('',#719,#720,#721);
#719 = CARTESIAN_POINT('',(576.73281469629,-158.757233003,0.));
#720 = DIRECTION('',(0.,-1.,0.));
#721 = DIRECTION('',(-1.,0.,0.));
#722 = ADVANCED_FACE('',(#723),#742,.F.);
#723 = FACE_BOUND('',#724,.F.);
#724 = EDGE_LOOP('',(#725,#726,#734,#741));
#725 = ORIENTED_EDGE('',*,*,#157,.T.);
#726 = ORIENTED_EDGE('',*,*,#727,.T.);
#727 = EDGE_CURVE('',#150,#728,#730,.T.);
#728 = VERTEX_POINT('',#729);
#729 = CARTESIAN_POINT('',(61.534156690178,-51.71987438341,12.));
#730 = LINE('',#731,#732);
#731 = CARTESIAN_POINT('',(61.534156690178,-51.71987438341,0.));
#732 = VECTOR('',#733,1.);
#733 = DIRECTION('',(0.,0.,1.));
#734 = ORIENTED_EDGE('',*,*,#735,.F.);
#735 = EDGE_CURVE('',#610,#728,#736,.T.);
#736 = CIRCLE('',#737,3.);
#737 = AXIS2_PLACEMENT_3D('',#738,#739,#740);
#738 = CARTESIAN_POINT('',(64.534156690178,-51.71987438341,12.));
#739 = DIRECTION('',(-0.,0.,1.));
#740 = DIRECTION('',(0.,-1.,0.));
#741 = ORIENTED_EDGE('',*,*,#609,.F.);
#742 = CYLINDRICAL_SURFACE('',#743,3.);
#743 = AXIS2_PLACEMENT_3D('',#744,#745,#746);
#744 = CARTESIAN_POINT('',(64.534156690178,-51.71987438341,0.));
#745 = DIRECTION('',(0.,0.,1.));
#746 = DIRECTION('',(0.,1.,0.));
#747 = ADVANCED_FACE('',(#748),#767,.F.);
#748 = FACE_BOUND('',#749,.F.);
#749 = EDGE_LOOP('',(#750,#751,#752,#761));
#750 = ORIENTED_EDGE('',*,*,#140,.T.);
#751 = ORIENTED_EDGE('',*,*,#712,.T.);
#752 = ORIENTED_EDGE('',*,*,#753,.F.);
#753 = EDGE_CURVE('',#754,#705,#756,.T.);
#754 = VERTEX_POINT('',#755);
#755 = CARTESIAN_POINT('',(61.534156690178,-155.757233003,12.));
#756 = CIRCLE('',#757,3.);
#757 = AXIS2_PLACEMENT_3D('',#758,#759,#760);
#758 = CARTESIAN_POINT('',(64.534156690178,-155.757233003,12.));
#759 = DIRECTION('',(-0.,0.,1.));
#760 = DIRECTION('',(0.,-1.,0.));
#761 = ORIENTED_EDGE('',*,*,#762,.F.);
#762 = EDGE_CURVE('',#141,#754,#763,.T.);
#763 = LINE('',#764,#765);
#764 = CARTESIAN_POINT('',(61.534156690178,-155.757233003,0.));
#765 = VECTOR('',#766,1.);
#766 = DIRECTION('',(0.,0.,1.));
#767 = CYLINDRICAL_SURFACE('',#768,3.);
#768 = AXIS2_PLACEMENT_3D('',#769,#770,#771);
#769 = CARTESIAN_POINT('',(64.534156690178,-155.757233003,0.));
#770 = DIRECTION('',(0.,0.,1.));
#771 = DIRECTION('',(-1.,0.,0.));
#772 = ADVANCED_FACE('',(#773),#784,.F.);
#773 = FACE_BOUND('',#774,.F.);
#774 = EDGE_LOOP('',(#775,#776,#777,#783));
#775 = ORIENTED_EDGE('',*,*,#149,.F.);
#776 = ORIENTED_EDGE('',*,*,#762,.T.);
#777 = ORIENTED_EDGE('',*,*,#778,.T.);
#778 = EDGE_CURVE('',#754,#728,#779,.T.);
#779 = LINE('',#780,#781);
#780 = CARTESIAN_POINT('',(61.534156690178,-158.757233003,12.));
#781 = VECTOR('',#782,1.);
#782 = DIRECTION('',(0.,1.,0.));
#783 = ORIENTED_EDGE('',*,*,#727,.F.);
#784 = PLANE('',#785);
#785 = AXIS2_PLACEMENT_3D('',#786,#787,#788);
#786 = CARTESIAN_POINT('',(61.534156690178,-158.757233003,0.));
#787 = DIRECTION('',(-1.,0.,0.));
#788 = DIRECTION('',(0.,1.,0.));
#789 = ADVANCED_FACE('',(#790),#809,.F.);
#790 = FACE_BOUND('',#791,.F.);
#791 = EDGE_LOOP('',(#792,#800,#807,#808));
#792 = ORIENTED_EDGE('',*,*,#793,.T.);
#793 = EDGE_CURVE('',#184,#794,#796,.T.);
#794 = VERTEX_POINT('',#795);
#795 = CARTESIAN_POINT('',(62.4574,-48.4596,3.8));
#796 = LINE('',#797,#798);
#797 = CARTESIAN_POINT('',(62.4574,-48.4596,0.));
#798 = VECTOR('',#799,1.);
#799 = DIRECTION('',(0.,0.,1.));
#800 = ORIENTED_EDGE('',*,*,#801,.T.);
#801 = EDGE_CURVE('',#794,#794,#802,.T.);
#802 = CIRCLE('',#803,1.25);
#803 = AXIS2_PLACEMENT_3D('',#804,#805,#806);
#804 = CARTESIAN_POINT('',(61.2074,-48.4596,3.8));
#805 = DIRECTION('',(0.,0.,-1.));
#806 = DIRECTION('',(1.,0.,0.));
#807 = ORIENTED_EDGE('',*,*,#793,.F.);
#808 = ORIENTED_EDGE('',*,*,#183,.F.);
#809 = CYLINDRICAL_SURFACE('',#810,1.25);
#810 = AXIS2_PLACEMENT_3D('',#811,#812,#813);
#811 = CARTESIAN_POINT('',(61.2074,-48.4596,0.));
#812 = DIRECTION('',(0.,0.,-1.));
#813 = DIRECTION('',(1.,0.,0.));
#814 = ADVANCED_FACE('',(#815),#834,.F.);
#815 = FACE_BOUND('',#816,.F.);
#816 = EDGE_LOOP('',(#817,#825,#832,#833));
#817 = ORIENTED_EDGE('',*,*,#818,.T.);
#818 = EDGE_CURVE('',#195,#819,#821,.T.);
#819 = VERTEX_POINT('',#820);
#820 = CARTESIAN_POINT('',(578.23,-48.3949,4.));
#821 = LINE('',#822,#823);
#822 = CARTESIAN_POINT('',(578.23,-48.3949,0.));
#823 = VECTOR('',#824,1.);
#824 = DIRECTION('',(0.,0.,1.));
#825 = ORIENTED_EDGE('',*,*,#826,.T.);
#826 = EDGE_CURVE('',#819,#819,#827,.T.);
#827 = CIRCLE('',#828,1.25);
#828 = AXIS2_PLACEMENT_3D('',#829,#830,#831);
#829 = CARTESIAN_POINT('',(576.98,-48.3949,4.));
#830 = DIRECTION('',(0.,0.,-1.));
#831 = DIRECTION('',(1.,0.,0.));
#832 = ORIENTED_EDGE('',*,*,#818,.F.);
#833 = ORIENTED_EDGE('',*,*,#194,.F.);
#834 = CYLINDRICAL_SURFACE('',#835,1.25);
#835 = AXIS2_PLACEMENT_3D('',#836,#837,#838);
#836 = CARTESIAN_POINT('',(576.98,-48.3949,0.));
#837 = DIRECTION('',(0.,0.,-1.));
#838 = DIRECTION('',(1.,0.,0.));
#839 = ADVANCED_FACE('',(#840),#850,.T.);
#840 = FACE_BOUND('',#841,.T.);
#841 = EDGE_LOOP('',(#842,#843,#844,#845,#846,#847,#848,#849));
#842 = ORIENTED_EDGE('',*,*,#220,.F.);
#843 = ORIENTED_EDGE('',*,*,#251,.T.);
#844 = ORIENTED_EDGE('',*,*,#301,.F.);
#845 = ORIENTED_EDGE('',*,*,#419,.T.);
#846 = ORIENTED_EDGE('',*,*,#462,.F.);
#847 = ORIENTED_EDGE('',*,*,#437,.T.);
#848 = ORIENTED_EDGE('',*,*,#388,.F.);
#849 = ORIENTED_EDGE('',*,*,#269,.T.);
#850 = PLANE('',#851);
#851 = AXIS2_PLACEMENT_3D('',#852,#853,#854);
#852 = CARTESIAN_POINT('',(319.133485,-103.738553,15.));
#853 = DIRECTION('',(0.,0.,1.));
#854 = DIRECTION('',(1.,0.,0.));
#855 = ADVANCED_FACE('',(#856),#872,.F.);
#856 = FACE_BOUND('',#857,.F.);
#857 = EDGE_LOOP('',(#858,#859,#865,#866));
#858 = ORIENTED_EDGE('',*,*,#637,.F.);
#859 = ORIENTED_EDGE('',*,*,#860,.T.);
#860 = EDGE_CURVE('',#629,#313,#861,.T.);
#861 = LINE('',#862,#863);
#862 = CARTESIAN_POINT('',(101.978394,-48.71987438341,4.529941));
#863 = VECTOR('',#864,1.);
#864 = DIRECTION('',(0.,1.,-2.2E-16));
#865 = ORIENTED_EDGE('',*,*,#310,.F.);
#866 = ORIENTED_EDGE('',*,*,#867,.F.);
#867 = EDGE_CURVE('',#638,#311,#868,.T.);
#868 = LINE('',#869,#870);
#869 = CARTESIAN_POINT('',(101.978394,-48.71987438341,5.620946));
#870 = VECTOR('',#871,1.);
#871 = DIRECTION('',(0.,1.,-2.2E-16));
#872 = PLANE('',#873);
#873 = AXIS2_PLACEMENT_3D('',#874,#875,#876);
#874 = CARTESIAN_POINT('',(101.978394,-48.71987438341,4.529941));
#875 = DIRECTION('',(1.,0.,0.));
#876 = DIRECTION('',(0.,2.2E-16,1.));
#877 = ADVANCED_FACE('',(#878),#889,.F.);
#878 = FACE_BOUND('',#879,.F.);
#879 = EDGE_LOOP('',(#880,#881,#887,#888));
#880 = ORIENTED_EDGE('',*,*,#626,.F.);
#881 = ORIENTED_EDGE('',*,*,#882,.T.);
#882 = EDGE_CURVE('',#627,#364,#883,.T.);
#883 = LINE('',#884,#885);
#884 = CARTESIAN_POINT('',(100.817866,-48.71987438341,3.369413));
#885 = VECTOR('',#886,1.);
#886 = DIRECTION('',(0.,1.,-2.2E-16));
#887 = ORIENTED_EDGE('',*,*,#371,.T.);
#888 = ORIENTED_EDGE('',*,*,#860,.F.);
#889 = CYLINDRICAL_SURFACE('',#890,1.160528);
#890 = AXIS2_PLACEMENT_3D('',#891,#892,#893);
#891 = CARTESIAN_POINT('',(100.817866,-48.71987438341,4.529941));
#892 = DIRECTION('',(0.,-1.,2.2E-16));
#893 = DIRECTION('',(1.,0.,0.));
#894 = ADVANCED_FACE('',(#895),#906,.F.);
#895 = FACE_BOUND('',#896,.F.);
#896 = EDGE_LOOP('',(#897,#898,#904,#905));
#897 = ORIENTED_EDGE('',*,*,#688,.F.);
#898 = ORIENTED_EDGE('',*,*,#899,.T.);
#899 = EDGE_CURVE('',#680,#355,#900,.T.);
#900 = LINE('',#901,#902);
#901 = CARTESIAN_POINT('',(91.437399,-48.71987438341,3.369413));
#902 = VECTOR('',#903,1.);
#903 = DIRECTION('',(0.,1.,-2.2E-16));
#904 = ORIENTED_EDGE('',*,*,#363,.F.);
#905 = ORIENTED_EDGE('',*,*,#882,.F.);
#906 = PLANE('',#907);
#907 = AXIS2_PLACEMENT_3D('',#908,#909,#910);
#908 = CARTESIAN_POINT('',(91.437399,-48.71987438341,3.369413));
#909 = DIRECTION('',(0.,-2.2E-16,-1.));
#910 = DIRECTION('',(1.,0.,0.));
#911 = ADVANCED_FACE('',(#912),#923,.F.);
#912 = FACE_BOUND('',#913,.F.);
#913 = EDGE_LOOP('',(#914,#915,#921,#922));
#914 = ORIENTED_EDGE('',*,*,#679,.F.);
#915 = ORIENTED_EDGE('',*,*,#916,.T.);
#916 = EDGE_CURVE('',#672,#347,#917,.T.);
#917 = LINE('',#918,#919);
#918 = CARTESIAN_POINT('',(90.276871,-48.71987438341,4.529941));
#919 = VECTOR('',#920,1.);
#920 = DIRECTION('',(0.,1.,-2.2E-16));
#921 = ORIENTED_EDGE('',*,*,#354,.T.);
#922 = ORIENTED_EDGE('',*,*,#899,.F.);
#923 = CYLINDRICAL_SURFACE('',#924,1.160528);
#924 = AXIS2_PLACEMENT_3D('',#925,#926,#927);
#925 = CARTESIAN_POINT('',(91.437399,-48.71987438341,4.529941));
#926 = DIRECTION('',(0.,-1.,2.2E-16));
#927 = DIRECTION('',(1.,0.,0.));
#928 = ADVANCED_FACE('',(#929),#940,.F.);
#929 = FACE_BOUND('',#930,.F.);
#930 = EDGE_LOOP('',(#931,#932,#938,#939));
#931 = ORIENTED_EDGE('',*,*,#671,.F.);
#932 = ORIENTED_EDGE('',*,*,#933,.T.);
#933 = EDGE_CURVE('',#663,#338,#934,.T.);
#934 = LINE('',#935,#936);
#935 = CARTESIAN_POINT('',(90.276871,-48.71987438341,5.620946));
#936 = VECTOR('',#937,1.);
#937 = DIRECTION('',(0.,1.,-2.2E-16));
#938 = ORIENTED_EDGE('',*,*,#346,.F.);
#939 = ORIENTED_EDGE('',*,*,#916,.F.);
#940 = PLANE('',#941);
#941 = AXIS2_PLACEMENT_3D('',#942,#943,#944);
#942 = CARTESIAN_POINT('',(90.276871,-48.71987438341,5.620946));
#943 = DIRECTION('',(-1.,0.,0.));
#944 = DIRECTION('',(-0.,-2.2E-16,-1.));
#945 = ADVANCED_FACE('',(#946),#957,.F.);
#946 = FACE_BOUND('',#947,.F.);
#947 = EDGE_LOOP('',(#948,#949,#955,#956));
#948 = ORIENTED_EDGE('',*,*,#662,.F.);
#949 = ORIENTED_EDGE('',*,*,#950,.T.);
#950 = EDGE_CURVE('',#655,#330,#951,.T.);
#951 = LINE('',#952,#953);
#952 = CARTESIAN_POINT('',(91.437399,-48.71987438341,6.781474));
#953 = VECTOR('',#954,1.);
#954 = DIRECTION('',(0.,1.,-2.2E-16));
#955 = ORIENTED_EDGE('',*,*,#337,.T.);
#956 = ORIENTED_EDGE('',*,*,#933,.F.);
#957 = CYLINDRICAL_SURFACE('',#958,1.160528);
#958 = AXIS2_PLACEMENT_3D('',#959,#960,#961);
#959 = CARTESIAN_POINT('',(91.437399,-48.71987438341,5.620946));
#960 = DIRECTION('',(0.,-1.,2.2E-16));
#961 = DIRECTION('',(1.,0.,0.));
#962 = ADVANCED_FACE('',(#963),#974,.F.);
#963 = FACE_BOUND('',#964,.F.);
#964 = EDGE_LOOP('',(#965,#966,#972,#973));
#965 = ORIENTED_EDGE('',*,*,#654,.F.);
#966 = ORIENTED_EDGE('',*,*,#967,.T.);
#967 = EDGE_CURVE('',#646,#321,#968,.T.);
#968 = LINE('',#969,#970);
#969 = CARTESIAN_POINT('',(100.817866,-48.71987438341,6.781474));
#970 = VECTOR('',#971,1.);
#971 = DIRECTION('',(0.,1.,-2.2E-16));
#972 = ORIENTED_EDGE('',*,*,#329,.F.);
#973 = ORIENTED_EDGE('',*,*,#950,.F.);
#974 = PLANE('',#975);
#975 = AXIS2_PLACEMENT_3D('',#976,#977,#978);
#976 = CARTESIAN_POINT('',(100.817866,-48.71987438341,6.781474));
#977 = DIRECTION('',(0.,2.2E-16,1.));
#978 = DIRECTION('',(-1.,0.,0.));
#979 = ADVANCED_FACE('',(#980),#986,.F.);
#980 = FACE_BOUND('',#981,.F.);
#981 = EDGE_LOOP('',(#982,#983,#984,#985));
#982 = ORIENTED_EDGE('',*,*,#645,.F.);
#983 = ORIENTED_EDGE('',*,*,#867,.T.);
#984 = ORIENTED_EDGE('',*,*,#320,.T.);
#985 = ORIENTED_EDGE('',*,*,#967,.F.);
#986 = CYLINDRICAL_SURFACE('',#987,1.160528);
#987 = AXIS2_PLACEMENT_3D('',#988,#989,#990);
#988 = CARTESIAN_POINT('',(100.817866,-48.71987438341,5.620946));
#989 = DIRECTION('',(0.,-1.,2.2E-16));
#990 = DIRECTION('',(1.,0.,0.));
#991 = ADVANCED_FACE('',(#992),#995,.F.);
#992 = FACE_BOUND('',#993,.T.);
#993 = EDGE_LOOP('',(#994));
#994 = ORIENTED_EDGE('',*,*,#485,.T.);
#995 = PLANE('',#996);
#996 = AXIS2_PLACEMENT_3D('',#997,#998,#999);
#997 = CARTESIAN_POINT('',(61.2414,-159.005,4.));
#998 = DIRECTION('',(0.,0.,1.));
#999 = DIRECTION('',(1.,0.,0.));
#1000 = ADVANCED_FACE('',(#1001),#1004,.F.);
#1001 = FACE_BOUND('',#1002,.T.);
#1002 = EDGE_LOOP('',(#1003));
#1003 = ORIENTED_EDGE('',*,*,#510,.T.);
#1004 = PLANE('',#1005);
#1005 = AXIS2_PLACEMENT_3D('',#1006,#1007,#1008);
#1006 = CARTESIAN_POINT('',(576.934,-159.05,4.));
#1007 = DIRECTION('',(0.,0.,1.));
#1008 = DIRECTION('',(1.,0.,0.));
#1009 = ADVANCED_FACE('',(#1010),#1020,.F.);
#1010 = FACE_BOUND('',#1011,.F.);
#1011 = EDGE_LOOP('',(#1012,#1013,#1014,#1015,#1016,#1017,#1018,#1019));
#1012 = ORIENTED_EDGE('',*,*,#536,.F.);
#1013 = ORIENTED_EDGE('',*,*,#567,.T.);
#1014 = ORIENTED_EDGE('',*,*,#617,.F.);
#1015 = ORIENTED_EDGE('',*,*,#735,.T.);
#1016 = ORIENTED_EDGE('',*,*,#778,.F.);
#1017 = ORIENTED_EDGE('',*,*,#753,.T.);
#1018 = ORIENTED_EDGE('',*,*,#704,.F.);
#1019 = ORIENTED_EDGE('',*,*,#585,.T.);
#1020 = PLANE('',#1021);
#1021 = AXIS2_PLACEMENT_3D('',#1022,#1023,#1024);
#1022 = CARTESIAN_POINT('',(319.13348569323,-103.7385536932,12.));
#1023 = DIRECTION('',(0.,0.,1.));
#1024 = DIRECTION('',(1.,0.,0.));
#1025 = ADVANCED_FACE('',(#1026),#1029,.F.);
#1026 = FACE_BOUND('',#1027,.T.);
#1027 = EDGE_LOOP('',(#1028));
#1028 = ORIENTED_EDGE('',*,*,#801,.T.);
#1029 = PLANE('',#1030);
#1030 = AXIS2_PLACEMENT_3D('',#1031,#1032,#1033);
#1031 = CARTESIAN_POINT('',(61.2074,-48.4596,3.8));
#1032 = DIRECTION('',(0.,0.,1.));
#1033 = DIRECTION('',(1.,0.,0.));
#1034 = ADVANCED_FACE('',(#1035),#1038,.F.);
#1035 = FACE_BOUND('',#1036,.T.);
#1036 = EDGE_LOOP('',(#1037));
#1037 = ORIENTED_EDGE('',*,*,#826,.T.);
#1038 = PLANE('',#1039);
#1039 = AXIS2_PLACEMENT_3D('',#1040,#1041,#1042);
#1040 = CARTESIAN_POINT('',(576.98,-48.3949,4.));
#1041 = DIRECTION('',(0.,0.,1.));
#1042 = DIRECTION('',(1.,0.,0.));
#1043 = ( GEOMETRIC_REPRESENTATION_CONTEXT(3) 
GLOBAL_UNCERTAINTY_ASSIGNED_CONTEXT((#1047)) 
GLOBAL_UNIT_ASSIGNED_CONTEXT((#1044,#1045,#1046)) REPRESENTATION_CONTEXT
('Context #1','3D Context with UNIT and UNCERTAINTY') );
#1044 = ( LENGTH_UNIT() NAMED_UNIT(*) SI_UNIT(.MILLI.,.METRE.) );
#1045 = ( NAMED_UNIT(*) PLANE_ANGLE_UNIT() SI_UNIT($,.RADIAN.) );
#1046 = ( NAMED_UNIT(*) SI_UNIT($,.STERADIAN.) SOLID_ANGLE_UNIT() );
#1047 = UNCERTAINTY_MEASURE_WITH_UNIT(LENGTH_MEASURE(2.E-05),#1044,
  'distance_accuracy_value','confusion accuracy');
#1048 = PRODUCT_RELATED_PRODUCT_CATEGORY('part',$,(#7));
#1049 = MECHANICAL_DESIGN_GEOMETRIC_PRESENTATION_REPRESENTATION('',(
    #1050),#1043);
#1050 = STYLED_ITEM('color',(#1051),#15);
#1051 = PRESENTATION_STYLE_ASSIGNMENT((#1052,#1058));
#1052 = SURFACE_STYLE_USAGE(.BOTH.,#1053);
#1053 = SURFACE_SIDE_STYLE('',(#1054));
#1054 = SURFACE_STYLE_FILL_AREA(#1055);
#1055 = FILL_AREA_STYLE('',(#1056));
#1056 = FILL_AREA_STYLE_COLOUR('',#1057);
#1057 = COLOUR_RGB('',0.447058818107,0.474509808674,0.501960817233);
#1058 = CURVE_STYLE('',#1059,POSITIVE_LENGTH_MEASURE(0.1),#1060);
#1059 = DRAUGHTING_PRE_DEFINED_CURVE_FONT('continuous');
#1060 = COLOUR_RGB('',9.803921802644E-02,9.803921802644E-02,
  9.803921802644E-02);
ENDSEC;
END-ISO-10303-21;
